<mxfile host="app.diagrams.net" modified="2024-06-04T07:44:02.678Z" agent="Mozilla/5.0 (Windows NT 10.0; Win64; x64) AppleWebKit/537.36 (KHTML, like Gecko) Chrome/125.0.0.0 Safari/537.36" version="24.4.13" etag="FoYDB4TMBsqVe58mq2IV" type="github">
  <diagram name="페이지-1" id="Erjosomr_-6Mi2P7cFwi">
    <mxGraphModel>
      <root>
        <mxCell id="0" />
        <mxCell id="1" parent="0" />
      </root>
    </mxGraphModel>
  </diagram>
</mxfile>
